<mxfile host="app.diagrams.net" modified="2023-04-28T04:36:23.666Z" agent="Mozilla/5.0 (Windows NT 10.0; Win64; x64) AppleWebKit/537.36 (KHTML, like Gecko) Chrome/112.0.0.0 Safari/537.36" etag="9GPVYp-T8_LL8x8Krujj" version="21.2.3" type="device">
  <diagram name="페이지-1" id="UML0221GJtCSgokBE_pv">
    <mxGraphModel dx="1434" dy="788" grid="1" gridSize="10" guides="1" tooltips="1" connect="1" arrows="1" fold="1" page="1" pageScale="1" pageWidth="827" pageHeight="1169" math="0" shadow="0">
      <root>
        <mxCell id="0" />
        <mxCell id="1" parent="0" />
        <mxCell id="cJe3hY2d9pgwiBQw8F9i-1" value="메인페이지" style="rounded=1;whiteSpace=wrap;html=1;" vertex="1" parent="1">
          <mxGeometry x="299" y="70" width="120" height="60" as="geometry" />
        </mxCell>
        <mxCell id="cJe3hY2d9pgwiBQw8F9i-2" value="로그인" style="rounded=1;whiteSpace=wrap;html=1;" vertex="1" parent="1">
          <mxGeometry x="299" y="160" width="120" height="60" as="geometry" />
        </mxCell>
        <mxCell id="cJe3hY2d9pgwiBQw8F9i-3" value="마이페이지" style="rounded=1;whiteSpace=wrap;html=1;" vertex="1" parent="1">
          <mxGeometry x="299" y="250" width="120" height="60" as="geometry" />
        </mxCell>
        <mxCell id="cJe3hY2d9pgwiBQw8F9i-4" value="포인트 조회" style="rounded=1;whiteSpace=wrap;html=1;" vertex="1" parent="1">
          <mxGeometry x="530" y="73" width="120" height="60" as="geometry" />
        </mxCell>
        <mxCell id="cJe3hY2d9pgwiBQw8F9i-5" value="포인트 교환&lt;br&gt;(기프티콘)" style="rounded=1;whiteSpace=wrap;html=1;" vertex="1" parent="1">
          <mxGeometry x="530" y="160" width="120" height="60" as="geometry" />
        </mxCell>
        <mxCell id="cJe3hY2d9pgwiBQw8F9i-6" value="문자 전송" style="rounded=1;whiteSpace=wrap;html=1;" vertex="1" parent="1">
          <mxGeometry x="530" y="250" width="120" height="60" as="geometry" />
        </mxCell>
        <mxCell id="cJe3hY2d9pgwiBQw8F9i-7" value="" style="endArrow=classic;html=1;rounded=0;entryX=0.5;entryY=0;entryDx=0;entryDy=0;exitX=0.5;exitY=1;exitDx=0;exitDy=0;" edge="1" parent="1" source="cJe3hY2d9pgwiBQw8F9i-1" target="cJe3hY2d9pgwiBQw8F9i-2">
          <mxGeometry width="50" height="50" relative="1" as="geometry">
            <mxPoint x="360" y="130" as="sourcePoint" />
            <mxPoint x="350" y="190" as="targetPoint" />
          </mxGeometry>
        </mxCell>
        <mxCell id="cJe3hY2d9pgwiBQw8F9i-8" value="" style="endArrow=classic;html=1;rounded=0;entryX=0.5;entryY=0;entryDx=0;entryDy=0;exitX=0.5;exitY=1;exitDx=0;exitDy=0;" edge="1" parent="1">
          <mxGeometry width="50" height="50" relative="1" as="geometry">
            <mxPoint x="361" y="220" as="sourcePoint" />
            <mxPoint x="361" y="250" as="targetPoint" />
          </mxGeometry>
        </mxCell>
        <mxCell id="cJe3hY2d9pgwiBQw8F9i-11" value="" style="endArrow=classic;html=1;rounded=0;entryX=0.5;entryY=0;entryDx=0;entryDy=0;exitX=0.5;exitY=1;exitDx=0;exitDy=0;" edge="1" parent="1" source="cJe3hY2d9pgwiBQw8F9i-4" target="cJe3hY2d9pgwiBQw8F9i-5">
          <mxGeometry width="50" height="50" relative="1" as="geometry">
            <mxPoint x="369" y="140" as="sourcePoint" />
            <mxPoint x="369" y="170" as="targetPoint" />
          </mxGeometry>
        </mxCell>
        <mxCell id="cJe3hY2d9pgwiBQw8F9i-12" value="" style="endArrow=classic;html=1;rounded=0;entryX=0.5;entryY=0;entryDx=0;entryDy=0;" edge="1" parent="1" target="cJe3hY2d9pgwiBQw8F9i-6">
          <mxGeometry width="50" height="50" relative="1" as="geometry">
            <mxPoint x="590" y="220" as="sourcePoint" />
            <mxPoint x="592" y="249" as="targetPoint" />
          </mxGeometry>
        </mxCell>
        <mxCell id="cJe3hY2d9pgwiBQw8F9i-15" value="" style="edgeStyle=elbowEdgeStyle;elbow=horizontal;endArrow=classic;html=1;curved=0;rounded=0;endSize=8;startSize=8;entryX=0;entryY=0.5;entryDx=0;entryDy=0;exitX=1;exitY=0.5;exitDx=0;exitDy=0;" edge="1" parent="1" source="cJe3hY2d9pgwiBQw8F9i-3" target="cJe3hY2d9pgwiBQw8F9i-4">
          <mxGeometry width="50" height="50" relative="1" as="geometry">
            <mxPoint x="420" y="280" as="sourcePoint" />
            <mxPoint x="470" y="230" as="targetPoint" />
          </mxGeometry>
        </mxCell>
      </root>
    </mxGraphModel>
  </diagram>
</mxfile>
